<mxfile host="app.diagrams.net" modified="2024-05-20T10:44:46.241Z" agent="Mozilla/5.0 (Windows NT 10.0; Win64; x64) AppleWebKit/537.36 (KHTML, like Gecko) Chrome/124.0.0.0 Safari/537.36" etag="XpT16ogOHRLxtnxRDznp" version="24.4.4" type="device">
  <diagram name="Pagina-1" id="FjPVltbkEjsieCQ33UJy">
    <mxGraphModel dx="1290" dy="569" grid="1" gridSize="10" guides="1" tooltips="1" connect="1" arrows="1" fold="1" page="1" pageScale="1" pageWidth="827" pageHeight="1169" math="0" shadow="0">
      <root>
        <mxCell id="0" />
        <mxCell id="1" parent="0" />
        <mxCell id="rLGvEoe6SsppxQ3wL9xW-4" style="edgeStyle=orthogonalEdgeStyle;rounded=0;orthogonalLoop=1;jettySize=auto;html=1;exitX=1;exitY=0.5;exitDx=0;exitDy=0;" edge="1" parent="1" source="rLGvEoe6SsppxQ3wL9xW-1" target="rLGvEoe6SsppxQ3wL9xW-3">
          <mxGeometry relative="1" as="geometry" />
        </mxCell>
        <mxCell id="rLGvEoe6SsppxQ3wL9xW-13" style="edgeStyle=orthogonalEdgeStyle;rounded=0;orthogonalLoop=1;jettySize=auto;html=1;exitX=1;exitY=1;exitDx=0;exitDy=0;entryX=0.25;entryY=0;entryDx=0;entryDy=0;" edge="1" parent="1" source="rLGvEoe6SsppxQ3wL9xW-1" target="rLGvEoe6SsppxQ3wL9xW-12">
          <mxGeometry relative="1" as="geometry">
            <Array as="points">
              <mxPoint x="200" y="141" />
              <mxPoint x="200" y="210" />
              <mxPoint x="356" y="210" />
              <mxPoint x="356" y="250" />
            </Array>
          </mxGeometry>
        </mxCell>
        <mxCell id="rLGvEoe6SsppxQ3wL9xW-1" value="USER" style="shape=parallelogram;perimeter=parallelogramPerimeter;whiteSpace=wrap;html=1;fixedSize=1;" vertex="1" parent="1">
          <mxGeometry x="40" y="90" width="120" height="60" as="geometry" />
        </mxCell>
        <mxCell id="rLGvEoe6SsppxQ3wL9xW-5" style="edgeStyle=orthogonalEdgeStyle;rounded=0;orthogonalLoop=1;jettySize=auto;html=1;exitX=0;exitY=0.5;exitDx=0;exitDy=0;" edge="1" parent="1" source="rLGvEoe6SsppxQ3wL9xW-2" target="rLGvEoe6SsppxQ3wL9xW-3">
          <mxGeometry relative="1" as="geometry" />
        </mxCell>
        <mxCell id="rLGvEoe6SsppxQ3wL9xW-14" style="edgeStyle=orthogonalEdgeStyle;rounded=0;orthogonalLoop=1;jettySize=auto;html=1;exitX=0;exitY=1;exitDx=0;exitDy=0;entryX=1;entryY=0;entryDx=0;entryDy=0;" edge="1" parent="1" source="rLGvEoe6SsppxQ3wL9xW-2" target="rLGvEoe6SsppxQ3wL9xW-12">
          <mxGeometry relative="1" as="geometry">
            <Array as="points">
              <mxPoint x="560" y="150" />
              <mxPoint x="560" y="200" />
              <mxPoint x="470" y="200" />
            </Array>
          </mxGeometry>
        </mxCell>
        <mxCell id="rLGvEoe6SsppxQ3wL9xW-2" value="PHOTO" style="shape=parallelogram;perimeter=parallelogramPerimeter;whiteSpace=wrap;html=1;fixedSize=1;" vertex="1" parent="1">
          <mxGeometry x="680" y="90" width="120" height="60" as="geometry" />
        </mxCell>
        <mxCell id="rLGvEoe6SsppxQ3wL9xW-3" value="FOTO USER" style="rhombus;whiteSpace=wrap;html=1;" vertex="1" parent="1">
          <mxGeometry x="330" y="40" width="140" height="140" as="geometry" />
        </mxCell>
        <mxCell id="rLGvEoe6SsppxQ3wL9xW-6" value="0" style="text;html=1;align=center;verticalAlign=middle;resizable=0;points=[];autosize=1;strokeColor=none;fillColor=none;" vertex="1" parent="1">
          <mxGeometry x="145" y="58" width="30" height="30" as="geometry" />
        </mxCell>
        <mxCell id="rLGvEoe6SsppxQ3wL9xW-7" value="N" style="text;html=1;align=center;verticalAlign=middle;resizable=0;points=[];autosize=1;strokeColor=none;fillColor=none;" vertex="1" parent="1">
          <mxGeometry x="315" y="68" width="30" height="30" as="geometry" />
        </mxCell>
        <mxCell id="rLGvEoe6SsppxQ3wL9xW-8" value="1" style="text;html=1;align=center;verticalAlign=middle;resizable=0;points=[];autosize=1;strokeColor=none;fillColor=none;" vertex="1" parent="1">
          <mxGeometry x="470" y="68" width="30" height="30" as="geometry" />
        </mxCell>
        <mxCell id="rLGvEoe6SsppxQ3wL9xW-9" value="N" style="text;html=1;align=center;verticalAlign=middle;resizable=0;points=[];autosize=1;strokeColor=none;fillColor=none;" vertex="1" parent="1">
          <mxGeometry x="665" y="68" width="30" height="30" as="geometry" />
        </mxCell>
        <mxCell id="rLGvEoe6SsppxQ3wL9xW-10" value="ID (PRIMARY KEY)&lt;div style=&quot;&quot;&gt;NOME&lt;/div&gt;&lt;div style=&quot;&quot;&gt;PASSWORD&lt;/div&gt;&lt;div&gt;EMAIL&lt;/div&gt;" style="text;html=1;align=left;verticalAlign=middle;resizable=0;points=[];autosize=1;strokeColor=none;fillColor=none;" vertex="1" parent="1">
          <mxGeometry x="40" y="150" width="130" height="70" as="geometry" />
        </mxCell>
        <mxCell id="rLGvEoe6SsppxQ3wL9xW-11" value="ID (PRIMARY KEY)&lt;div&gt;USER ID&lt;/div&gt;&lt;div&gt;DESCRIZIONE&lt;/div&gt;&lt;div&gt;DATA&lt;/div&gt;&lt;div&gt;TAG&lt;/div&gt;" style="text;html=1;align=left;verticalAlign=middle;resizable=0;points=[];autosize=1;strokeColor=none;fillColor=none;" vertex="1" parent="1">
          <mxGeometry x="680" y="150" width="130" height="90" as="geometry" />
        </mxCell>
        <mxCell id="rLGvEoe6SsppxQ3wL9xW-12" value="ALBUM" style="shape=parallelogram;perimeter=parallelogramPerimeter;whiteSpace=wrap;html=1;fixedSize=1;" vertex="1" parent="1">
          <mxGeometry x="350" y="250" width="120" height="60" as="geometry" />
        </mxCell>
        <mxCell id="rLGvEoe6SsppxQ3wL9xW-16" value="1" style="text;html=1;align=center;verticalAlign=middle;resizable=0;points=[];autosize=1;strokeColor=none;fillColor=none;" vertex="1" parent="1">
          <mxGeometry x="475" y="228" width="30" height="30" as="geometry" />
        </mxCell>
        <mxCell id="rLGvEoe6SsppxQ3wL9xW-17" value="N" style="text;html=1;align=center;verticalAlign=middle;resizable=0;points=[];autosize=1;strokeColor=none;fillColor=none;" vertex="1" parent="1">
          <mxGeometry x="635" y="148" width="30" height="30" as="geometry" />
        </mxCell>
        <mxCell id="rLGvEoe6SsppxQ3wL9xW-19" value="0" style="text;html=1;align=center;verticalAlign=middle;resizable=0;points=[];autosize=1;strokeColor=none;fillColor=none;" vertex="1" parent="1">
          <mxGeometry x="175" y="148" width="30" height="30" as="geometry" />
        </mxCell>
        <mxCell id="rLGvEoe6SsppxQ3wL9xW-20" value="N" style="text;html=1;align=center;verticalAlign=middle;resizable=0;points=[];autosize=1;strokeColor=none;fillColor=none;" vertex="1" parent="1">
          <mxGeometry x="325" y="228" width="30" height="30" as="geometry" />
        </mxCell>
        <mxCell id="rLGvEoe6SsppxQ3wL9xW-21" value="ID (PRIMARY KEY)&lt;div&gt;TITOLO&lt;/div&gt;&lt;div&gt;DESCRIZIONE&lt;/div&gt;&lt;div&gt;LISTA FOTO&lt;/div&gt;&lt;div&gt;DATA&lt;/div&gt;" style="text;html=1;align=left;verticalAlign=middle;resizable=0;points=[];autosize=1;strokeColor=none;fillColor=none;" vertex="1" parent="1">
          <mxGeometry x="350" y="310" width="130" height="90" as="geometry" />
        </mxCell>
        <mxCell id="rLGvEoe6SsppxQ3wL9xW-24" value="INSERIMENTO" style="rhombus;whiteSpace=wrap;html=1;" vertex="1" parent="1">
          <mxGeometry x="500" y="148" width="100" height="80" as="geometry" />
        </mxCell>
        <mxCell id="rLGvEoe6SsppxQ3wL9xW-25" value="INSERIMENTO" style="rhombus;whiteSpace=wrap;html=1;" vertex="1" parent="1">
          <mxGeometry x="200" y="170" width="100" height="80" as="geometry" />
        </mxCell>
      </root>
    </mxGraphModel>
  </diagram>
</mxfile>
